<svg xmlns="http://www.w3.org/2000/svg" enable-background="new 0 0 25 25" viewBox="0 0 25 25"><path fill="#DE002A" d="M1,25c-0.256,0-0.51-0.098-0.702-0.288c-0.32-0.315-0.391-0.806-0.172-1.199c4.29-7.706,6.789-12.389,8.356-15.659c0.058-0.121,0.139-0.227,0.236-0.314c0.006-0.128,0.037-0.257,0.093-0.379c0.876-1.873,1.429-3.245,2.129-4.981l0.631-1.559C11.724,0.249,12.086,0.003,12.489,0c0.437-0.029,0.77,0.237,0.928,0.608l0.596,1.406c1.683,3.979,2.61,6.171,8.116,16.417c0.135,0.251,0.153,0.542,0.064,0.799c0.161,0.131,0.317,0.257,0.471,0.376c0.11,0.085,0.201,0.192,0.267,0.315l1.947,3.601c0.213,0.394,0.14,0.881-0.181,1.193c-0.322,0.312-0.811,0.373-1.198,0.15c-3.791-2.189-6.389-3.314-8.689-3.764c-0.264-0.052-0.497-0.208-0.645-0.433c-0.147-0.226-0.198-0.501-0.14-0.764c0.073-0.33,0.115-0.688,0.125-1.065c0.045-1.881-0.8-3.362-1.586-3.428c-0.204-0.014-0.419,0.07-0.632,0.261c-0.576,0.516-0.967,1.606-0.997,2.777l-0.002,0.108C10.93,19,10.979,19.443,11.08,19.875c0.062,0.265,0.013,0.544-0.136,0.773s-0.385,0.386-0.653,0.437c-2.332,0.439-4.961,1.57-8.791,3.781C1.344,24.956,1.171,25,1,25z M16.125,19.349c1.587,0.408,3.311,1.094,5.387,2.152l-0.241-0.446c-0.142-0.113-0.286-0.23-0.435-0.352c-0.79-0.643-1.684-1.372-3.21-2.155c-0.454-0.233-0.66-0.77-0.478-1.246c0.182-0.477,0.694-0.739,1.186-0.611c0.241,0.063,0.475,0.128,0.7,0.196c-4.048-7.604-5.183-10.133-6.517-13.273c-0.5,1.237-0.979,2.396-1.606,3.771c0.576,0.582,1.295,1.237,2.329,1.959c0.417,0.292,0.549,0.852,0.304,1.299c-0.244,0.447-0.785,0.638-1.258,0.445c-0.975-0.401-1.811-0.828-2.527-1.289c-1.358,2.748-3.304,6.403-6.215,11.675c2.086-1.058,3.823-1.742,5.423-2.145c-0.025-0.265-0.037-0.531-0.035-0.797c0-0.005,0-0.011,0-0.017l0.003-0.116c0.043-1.747,0.665-3.323,1.661-4.216c0.632-0.565,1.374-0.826,2.136-0.765c1.985,0.167,3.486,2.57,3.417,5.47C16.146,19.044,16.138,19.198,16.125,19.349z"/></svg>